<mxfile host="app.diagrams.net" modified="2024-05-29T14:20:36.748Z" agent="Mozilla/5.0 (Windows NT 10.0; Win64; x64) AppleWebKit/537.36 (KHTML, like Gecko) Chrome/122.0.0.0 YaBrowser/24.4.0.0 Safari/537.36" etag="Uee-878fQUjqhl6xowYj" version="24.4.9" type="device">
  <diagram name="Страница — 1" id="2SIQm7E5dT8MYux1pku_">
    <mxGraphModel dx="1733" dy="2118" grid="1" gridSize="10" guides="1" tooltips="1" connect="1" arrows="1" fold="1" page="1" pageScale="1" pageWidth="827" pageHeight="1169" math="0" shadow="0">
      <root>
        <mxCell id="0" />
        <mxCell id="1" parent="0" />
        <mxCell id="SuQCljgCmP5aGSZ86cnu-1" value="Менеджер" style="shape=umlActor;verticalLabelPosition=bottom;verticalAlign=top;html=1;outlineConnect=0;" parent="1" vertex="1">
          <mxGeometry x="560" y="585" width="30" height="60" as="geometry" />
        </mxCell>
        <mxCell id="SuQCljgCmP5aGSZ86cnu-2" value="Просмотреть онлайн-заказы" style="ellipse;whiteSpace=wrap;html=1;" parent="1" vertex="1">
          <mxGeometry x="590" y="450" width="120" height="80" as="geometry" />
        </mxCell>
        <mxCell id="SuQCljgCmP5aGSZ86cnu-3" value="" style="endArrow=none;html=1;rounded=0;" parent="1" source="SuQCljgCmP5aGSZ86cnu-1" target="SuQCljgCmP5aGSZ86cnu-2" edge="1">
          <mxGeometry width="50" height="50" relative="1" as="geometry">
            <mxPoint x="800" y="700" as="sourcePoint" />
            <mxPoint x="850" y="650" as="targetPoint" />
          </mxGeometry>
        </mxCell>
        <mxCell id="SuQCljgCmP5aGSZ86cnu-6" value="Клиент" style="shape=umlActor;verticalLabelPosition=bottom;verticalAlign=top;html=1;outlineConnect=0;" parent="1" vertex="1">
          <mxGeometry x="60" y="760" width="30" height="60" as="geometry" />
        </mxCell>
        <mxCell id="SuQCljgCmP5aGSZ86cnu-7" value="Выбрать автомобиль" style="ellipse;whiteSpace=wrap;html=1;" parent="1" vertex="1">
          <mxGeometry x="140" y="700" width="120" height="80" as="geometry" />
        </mxCell>
        <mxCell id="SuQCljgCmP5aGSZ86cnu-8" value="" style="endArrow=none;html=1;rounded=0;" parent="1" source="SuQCljgCmP5aGSZ86cnu-6" target="SuQCljgCmP5aGSZ86cnu-7" edge="1">
          <mxGeometry width="50" height="50" relative="1" as="geometry">
            <mxPoint x="190" y="850" as="sourcePoint" />
            <mxPoint x="240" y="800" as="targetPoint" />
          </mxGeometry>
        </mxCell>
        <mxCell id="SuQCljgCmP5aGSZ86cnu-10" value="Выбрать комплектацию" style="ellipse;whiteSpace=wrap;html=1;" parent="1" vertex="1">
          <mxGeometry x="334" y="640" width="120" height="80" as="geometry" />
        </mxCell>
        <mxCell id="SuQCljgCmP5aGSZ86cnu-11" value="" style="endArrow=open;html=1;rounded=0;endFill=0;strokeWidth=1;endSize=10;dashed=1;" parent="1" source="SuQCljgCmP5aGSZ86cnu-7" target="SuQCljgCmP5aGSZ86cnu-10" edge="1">
          <mxGeometry width="50" height="50" relative="1" as="geometry">
            <mxPoint x="380" y="790" as="sourcePoint" />
            <mxPoint x="430" y="740" as="targetPoint" />
          </mxGeometry>
        </mxCell>
        <mxCell id="SuQCljgCmP5aGSZ86cnu-12" value="include" style="text;html=1;align=center;verticalAlign=middle;resizable=0;points=[];autosize=1;strokeColor=none;fillColor=none;" parent="1" vertex="1">
          <mxGeometry x="250" y="678" width="60" height="30" as="geometry" />
        </mxCell>
        <mxCell id="SuQCljgCmP5aGSZ86cnu-15" value="Оформить онлайн заказ" style="ellipse;whiteSpace=wrap;html=1;" parent="1" vertex="1">
          <mxGeometry x="720" y="350" width="120" height="80" as="geometry" />
        </mxCell>
        <mxCell id="SuQCljgCmP5aGSZ86cnu-16" value="Составить договор" style="ellipse;whiteSpace=wrap;html=1;" parent="1" vertex="1">
          <mxGeometry x="780" y="505" width="120" height="80" as="geometry" />
        </mxCell>
        <mxCell id="SuQCljgCmP5aGSZ86cnu-17" value="" style="endArrow=none;html=1;rounded=0;" parent="1" source="SuQCljgCmP5aGSZ86cnu-6" target="SuQCljgCmP5aGSZ86cnu-45" edge="1">
          <mxGeometry width="50" height="50" relative="1" as="geometry">
            <mxPoint x="180" y="640.0011627906978" as="sourcePoint" />
            <mxPoint x="320.03647293572703" y="636.7445006294016" as="targetPoint" />
          </mxGeometry>
        </mxCell>
        <mxCell id="SuQCljgCmP5aGSZ86cnu-18" value="Продавец" style="shape=umlActor;verticalLabelPosition=bottom;verticalAlign=top;html=1;outlineConnect=0;" parent="1" vertex="1">
          <mxGeometry x="419" y="900" width="30" height="60" as="geometry" />
        </mxCell>
        <mxCell id="SuQCljgCmP5aGSZ86cnu-19" value="Провести консультацию" style="ellipse;whiteSpace=wrap;html=1;" parent="1" vertex="1">
          <mxGeometry x="460" y="780" width="120" height="80" as="geometry" />
        </mxCell>
        <mxCell id="SuQCljgCmP5aGSZ86cnu-20" value="" style="endArrow=none;html=1;rounded=0;" parent="1" source="SuQCljgCmP5aGSZ86cnu-18" target="SuQCljgCmP5aGSZ86cnu-19" edge="1">
          <mxGeometry width="50" height="50" relative="1" as="geometry">
            <mxPoint x="471" y="860" as="sourcePoint" />
            <mxPoint x="521" y="810" as="targetPoint" />
          </mxGeometry>
        </mxCell>
        <mxCell id="SuQCljgCmP5aGSZ86cnu-24" value="" style="endArrow=none;html=1;rounded=0;" parent="1" source="SuQCljgCmP5aGSZ86cnu-1" target="SuQCljgCmP5aGSZ86cnu-25" edge="1">
          <mxGeometry width="50" height="50" relative="1" as="geometry">
            <mxPoint x="750" y="870" as="sourcePoint" />
            <mxPoint x="830" y="850" as="targetPoint" />
          </mxGeometry>
        </mxCell>
        <mxCell id="SuQCljgCmP5aGSZ86cnu-25" value="Произвести заказ у поставщика" style="ellipse;whiteSpace=wrap;html=1;" parent="1" vertex="1">
          <mxGeometry x="760" y="640" width="120" height="80" as="geometry" />
        </mxCell>
        <mxCell id="SuQCljgCmP5aGSZ86cnu-30" value="" style="endArrow=none;html=1;rounded=0;" parent="1" source="SuQCljgCmP5aGSZ86cnu-6" target="SuQCljgCmP5aGSZ86cnu-31" edge="1">
          <mxGeometry width="50" height="50" relative="1" as="geometry">
            <mxPoint x="267" y="870" as="sourcePoint" />
            <mxPoint x="217" y="880" as="targetPoint" />
          </mxGeometry>
        </mxCell>
        <mxCell id="SuQCljgCmP5aGSZ86cnu-31" value="Подписать договор" style="ellipse;whiteSpace=wrap;html=1;" parent="1" vertex="1">
          <mxGeometry x="167" y="820" width="120" height="80" as="geometry" />
        </mxCell>
        <mxCell id="SuQCljgCmP5aGSZ86cnu-32" value="Получить автомобиль" style="ellipse;whiteSpace=wrap;html=1;" parent="1" vertex="1">
          <mxGeometry x="150" y="932.5" width="120" height="80" as="geometry" />
        </mxCell>
        <mxCell id="SuQCljgCmP5aGSZ86cnu-33" value="" style="endArrow=none;html=1;rounded=0;" parent="1" source="SuQCljgCmP5aGSZ86cnu-6" target="SuQCljgCmP5aGSZ86cnu-32" edge="1">
          <mxGeometry width="50" height="50" relative="1" as="geometry">
            <mxPoint x="87" y="940" as="sourcePoint" />
            <mxPoint x="137" y="890" as="targetPoint" />
          </mxGeometry>
        </mxCell>
        <mxCell id="SuQCljgCmP5aGSZ86cnu-34" value="include" style="text;html=1;align=center;verticalAlign=middle;resizable=0;points=[];autosize=1;strokeColor=none;fillColor=none;" parent="1" vertex="1">
          <mxGeometry x="660" y="410" width="60" height="30" as="geometry" />
        </mxCell>
        <mxCell id="SuQCljgCmP5aGSZ86cnu-35" value="" style="endArrow=open;html=1;rounded=0;endFill=0;strokeWidth=1;endSize=10;dashed=1;" parent="1" source="SuQCljgCmP5aGSZ86cnu-2" target="SuQCljgCmP5aGSZ86cnu-15" edge="1">
          <mxGeometry width="50" height="50" relative="1" as="geometry">
            <mxPoint x="943" y="683" as="sourcePoint" />
            <mxPoint x="1029" y="657" as="targetPoint" />
          </mxGeometry>
        </mxCell>
        <mxCell id="SuQCljgCmP5aGSZ86cnu-36" value="" style="endArrow=none;html=1;rounded=0;" parent="1" source="SuQCljgCmP5aGSZ86cnu-18" target="SuQCljgCmP5aGSZ86cnu-31" edge="1">
          <mxGeometry width="50" height="50" relative="1" as="geometry">
            <mxPoint x="347" y="880" as="sourcePoint" />
            <mxPoint x="397" y="830" as="targetPoint" />
          </mxGeometry>
        </mxCell>
        <mxCell id="SuQCljgCmP5aGSZ86cnu-40" value="Оформить заказ в салоне" style="ellipse;whiteSpace=wrap;html=1;" parent="1" vertex="1">
          <mxGeometry x="294" y="410" width="120" height="80" as="geometry" />
        </mxCell>
        <mxCell id="SuQCljgCmP5aGSZ86cnu-41" value="" style="endArrow=none;html=1;rounded=0;" parent="1" source="SuQCljgCmP5aGSZ86cnu-1" target="SuQCljgCmP5aGSZ86cnu-40" edge="1">
          <mxGeometry width="50" height="50" relative="1" as="geometry">
            <mxPoint x="750" y="692" as="sourcePoint" />
            <mxPoint x="922" y="829" as="targetPoint" />
          </mxGeometry>
        </mxCell>
        <mxCell id="SuQCljgCmP5aGSZ86cnu-45" value="Согласовать заказ" style="ellipse;whiteSpace=wrap;html=1;" parent="1" vertex="1">
          <mxGeometry x="120" y="530" width="120" height="80" as="geometry" />
        </mxCell>
        <mxCell id="SuQCljgCmP5aGSZ86cnu-47" value="" style="endArrow=none;html=1;rounded=0;" parent="1" source="SuQCljgCmP5aGSZ86cnu-45" target="SuQCljgCmP5aGSZ86cnu-1" edge="1">
          <mxGeometry width="50" height="50" relative="1" as="geometry">
            <mxPoint x="99" y="770" as="sourcePoint" />
            <mxPoint x="172" y="618" as="targetPoint" />
          </mxGeometry>
        </mxCell>
        <mxCell id="SuQCljgCmP5aGSZ86cnu-48" value="" style="endArrow=none;html=1;rounded=0;" parent="1" source="SuQCljgCmP5aGSZ86cnu-1" target="SuQCljgCmP5aGSZ86cnu-16" edge="1">
          <mxGeometry width="50" height="50" relative="1" as="geometry">
            <mxPoint x="700" y="620" as="sourcePoint" />
            <mxPoint x="750" y="570" as="targetPoint" />
          </mxGeometry>
        </mxCell>
        <mxCell id="SuQCljgCmP5aGSZ86cnu-50" value="&lt;font style=&quot;font-size: 14px;&quot;&gt;Интерфейс автосалона (сайт)&lt;/font&gt;" style="shape=umlBoundary;whiteSpace=wrap;html=1;" parent="1" vertex="1">
          <mxGeometry x="1380" y="77.5" width="100" height="80" as="geometry" />
        </mxCell>
        <mxCell id="SuQCljgCmP5aGSZ86cnu-51" value="&lt;font style=&quot;font-size: 14px;&quot;&gt;Менеджер&lt;/font&gt;" style="shape=umlActor;verticalLabelPosition=bottom;verticalAlign=top;html=1;outlineConnect=0;" parent="1" vertex="1">
          <mxGeometry x="1140" y="77.5" width="30" height="60" as="geometry" />
        </mxCell>
        <mxCell id="SuQCljgCmP5aGSZ86cnu-52" value="" style="endArrow=none;dashed=1;html=1;rounded=0;" parent="1" target="SuQCljgCmP5aGSZ86cnu-51" edge="1">
          <mxGeometry width="50" height="50" relative="1" as="geometry">
            <mxPoint x="1150" y="1180" as="sourcePoint" />
            <mxPoint x="1150" y="145" as="targetPoint" />
            <Array as="points">
              <mxPoint x="1150" y="165" />
            </Array>
          </mxGeometry>
        </mxCell>
        <mxCell id="SuQCljgCmP5aGSZ86cnu-53" value="&lt;font style=&quot;font-size: 14px;&quot;&gt;Система управления заказами&lt;/font&gt;" style="ellipse;shape=umlControl;whiteSpace=wrap;html=1;" parent="1" vertex="1">
          <mxGeometry x="1670" y="62.5" width="90" height="95" as="geometry" />
        </mxCell>
        <mxCell id="SuQCljgCmP5aGSZ86cnu-54" value="&lt;font style=&quot;font-size: 14px;&quot;&gt;Заказы&lt;/font&gt;" style="ellipse;shape=umlEntity;whiteSpace=wrap;html=1;" parent="1" vertex="1">
          <mxGeometry x="2050" y="77.5" width="90" height="80" as="geometry" />
        </mxCell>
        <mxCell id="SuQCljgCmP5aGSZ86cnu-55" value="" style="endArrow=none;dashed=1;html=1;rounded=0;" parent="1" source="SuQCljgCmP5aGSZ86cnu-63" target="SuQCljgCmP5aGSZ86cnu-53" edge="1">
          <mxGeometry width="50" height="50" relative="1" as="geometry">
            <mxPoint x="1715" y="435" as="sourcePoint" />
            <mxPoint x="1660" y="175" as="targetPoint" />
          </mxGeometry>
        </mxCell>
        <mxCell id="SuQCljgCmP5aGSZ86cnu-56" value="" style="endArrow=none;dashed=1;html=1;rounded=0;" parent="1" source="SuQCljgCmP5aGSZ86cnu-59" target="SuQCljgCmP5aGSZ86cnu-50" edge="1">
          <mxGeometry width="50" height="50" relative="1" as="geometry">
            <mxPoint x="1431" y="495" as="sourcePoint" />
            <mxPoint x="1626" y="165" as="targetPoint" />
          </mxGeometry>
        </mxCell>
        <mxCell id="SuQCljgCmP5aGSZ86cnu-57" value="&lt;font style=&quot;font-size: 14px;&quot;&gt;1. Запросить новые онлайн-заказы&lt;/font&gt;" style="html=1;verticalAlign=bottom;endArrow=block;curved=0;rounded=0;entryX=0;entryY=0;entryDx=0;entryDy=5;" parent="1" target="SuQCljgCmP5aGSZ86cnu-59" edge="1">
          <mxGeometry relative="1" as="geometry">
            <mxPoint x="1150" y="290" as="sourcePoint" />
          </mxGeometry>
        </mxCell>
        <mxCell id="SuQCljgCmP5aGSZ86cnu-59" value="" style="html=1;points=[[0,0,0,0,5],[0,1,0,0,-5],[1,0,0,0,5],[1,1,0,0,-5]];perimeter=orthogonalPerimeter;outlineConnect=0;targetShapes=umlLifeline;portConstraint=eastwest;newEdgeStyle={&quot;curved&quot;:0,&quot;rounded&quot;:0};" parent="1" vertex="1">
          <mxGeometry x="1425" y="285" width="10" height="855" as="geometry" />
        </mxCell>
        <mxCell id="SuQCljgCmP5aGSZ86cnu-60" value="&lt;font style=&quot;font-size: 14px;&quot;&gt;2. Просмотр новых онлайн-заказов&lt;/font&gt;" style="html=1;verticalAlign=bottom;endArrow=block;curved=0;rounded=0;entryX=0;entryY=0;entryDx=0;entryDy=5;" parent="1" source="SuQCljgCmP5aGSZ86cnu-59" target="SuQCljgCmP5aGSZ86cnu-63" edge="1">
          <mxGeometry relative="1" as="geometry">
            <mxPoint x="1520" y="240" as="sourcePoint" />
          </mxGeometry>
        </mxCell>
        <mxCell id="SuQCljgCmP5aGSZ86cnu-61" value="&lt;font style=&quot;font-size: 14px;&quot;&gt;5. Данные о новых онлайн-заказах&lt;/font&gt;" style="html=1;verticalAlign=bottom;endArrow=open;dashed=1;endSize=8;curved=0;rounded=0;" parent="1" source="SuQCljgCmP5aGSZ86cnu-63" target="SuQCljgCmP5aGSZ86cnu-59" edge="1">
          <mxGeometry relative="1" as="geometry">
            <mxPoint x="1419.9999999999995" y="490" as="targetPoint" />
            <Array as="points">
              <mxPoint x="1570" y="440" />
            </Array>
          </mxGeometry>
        </mxCell>
        <mxCell id="SuQCljgCmP5aGSZ86cnu-62" value="" style="endArrow=none;dashed=1;html=1;rounded=0;" parent="1" target="SuQCljgCmP5aGSZ86cnu-63" edge="1">
          <mxGeometry width="50" height="50" relative="1" as="geometry">
            <mxPoint x="1715" y="435" as="sourcePoint" />
            <mxPoint x="1715" y="155" as="targetPoint" />
          </mxGeometry>
        </mxCell>
        <mxCell id="SuQCljgCmP5aGSZ86cnu-63" value="" style="html=1;points=[[0,0,0,0,5],[0,1,0,0,-5],[1,0,0,0,5],[1,1,0,0,-5]];perimeter=orthogonalPerimeter;outlineConnect=0;targetShapes=umlLifeline;portConstraint=eastwest;newEdgeStyle={&quot;curved&quot;:0,&quot;rounded&quot;:0};" parent="1" vertex="1">
          <mxGeometry x="1710" y="345" width="10" height="115" as="geometry" />
        </mxCell>
        <mxCell id="SuQCljgCmP5aGSZ86cnu-64" value="" style="endArrow=none;dashed=1;html=1;rounded=0;entryX=0.5;entryY=1;entryDx=0;entryDy=0;" parent="1" source="SuQCljgCmP5aGSZ86cnu-68" target="SuQCljgCmP5aGSZ86cnu-54" edge="1">
          <mxGeometry width="50" height="50" relative="1" as="geometry">
            <mxPoint x="2095" y="585" as="sourcePoint" />
            <mxPoint x="2120" y="215" as="targetPoint" />
          </mxGeometry>
        </mxCell>
        <mxCell id="SuQCljgCmP5aGSZ86cnu-65" value="&lt;font style=&quot;font-size: 14px;&quot;&gt;3. Запрос новых онлайн-заказов&lt;/font&gt;" style="html=1;verticalAlign=bottom;endArrow=block;curved=0;rounded=0;entryX=0;entryY=0;entryDx=0;entryDy=5;" parent="1" source="SuQCljgCmP5aGSZ86cnu-63" target="SuQCljgCmP5aGSZ86cnu-68" edge="1">
          <mxGeometry relative="1" as="geometry">
            <mxPoint x="1960" y="450" as="sourcePoint" />
          </mxGeometry>
        </mxCell>
        <mxCell id="SuQCljgCmP5aGSZ86cnu-66" value="&lt;font style=&quot;font-size: 14px;&quot;&gt;4. Данные о новых онлайн-заказах&lt;/font&gt;" style="html=1;verticalAlign=bottom;endArrow=open;dashed=1;endSize=8;curved=0;rounded=0;" parent="1" source="SuQCljgCmP5aGSZ86cnu-68" target="SuQCljgCmP5aGSZ86cnu-63" edge="1">
          <mxGeometry relative="1" as="geometry">
            <mxPoint x="1740" y="435" as="targetPoint" />
            <mxPoint x="2030" y="435" as="sourcePoint" />
          </mxGeometry>
        </mxCell>
        <mxCell id="SuQCljgCmP5aGSZ86cnu-67" value="" style="endArrow=none;dashed=1;html=1;rounded=0;entryX=0.5;entryY=1;entryDx=0;entryDy=0;" parent="1" source="SuQCljgCmP5aGSZ86cnu-116" target="SuQCljgCmP5aGSZ86cnu-68" edge="1">
          <mxGeometry width="50" height="50" relative="1" as="geometry">
            <mxPoint x="2095" y="1130" as="sourcePoint" />
            <mxPoint x="2095" y="148" as="targetPoint" />
          </mxGeometry>
        </mxCell>
        <mxCell id="SuQCljgCmP5aGSZ86cnu-68" value="" style="html=1;points=[[0,0,0,0,5],[0,1,0,0,-5],[1,0,0,0,5],[1,1,0,0,-5]];perimeter=orthogonalPerimeter;outlineConnect=0;targetShapes=umlLifeline;portConstraint=eastwest;newEdgeStyle={&quot;curved&quot;:0,&quot;rounded&quot;:0};" parent="1" vertex="1">
          <mxGeometry x="2090" y="375" width="10" height="85" as="geometry" />
        </mxCell>
        <mxCell id="SuQCljgCmP5aGSZ86cnu-71" value="&lt;span style=&quot;font-size: 14px;&quot;&gt;6. Данные о новых онлайн-заказах&lt;/span&gt;" style="html=1;verticalAlign=bottom;endArrow=open;dashed=1;endSize=8;curved=0;rounded=0;" parent="1" source="SuQCljgCmP5aGSZ86cnu-59" edge="1">
          <mxGeometry x="0.0005" relative="1" as="geometry">
            <mxPoint x="1150" y="480" as="targetPoint" />
            <mxPoint x="1404" y="510" as="sourcePoint" />
            <Array as="points">
              <mxPoint x="1300" y="480" />
            </Array>
            <mxPoint as="offset" />
          </mxGeometry>
        </mxCell>
        <mxCell id="SuQCljgCmP5aGSZ86cnu-79" value="&lt;font style=&quot;font-size: 20px;&quot;&gt;&lt;b&gt;Диаграмма последовательности для варианта использования &quot;Просмотреть онлайн-заказы&quot;&lt;/b&gt;&lt;/font&gt;" style="text;html=1;align=center;verticalAlign=middle;resizable=0;points=[];autosize=1;strokeColor=none;fillColor=none;" parent="1" vertex="1">
          <mxGeometry x="1521" width="960" height="40" as="geometry" />
        </mxCell>
        <mxCell id="SuQCljgCmP5aGSZ86cnu-80" value="&lt;font style=&quot;font-size: 14px;&quot;&gt;Автомобили&lt;/font&gt;" style="ellipse;shape=umlEntity;whiteSpace=wrap;html=1;" parent="1" vertex="1">
          <mxGeometry x="2250" y="75" width="90" height="80" as="geometry" />
        </mxCell>
        <mxCell id="SuQCljgCmP5aGSZ86cnu-81" value="&lt;font style=&quot;font-size: 14px;&quot;&gt;Б/У Автомобили&lt;/font&gt;" style="ellipse;shape=umlEntity;whiteSpace=wrap;html=1;" parent="1" vertex="1">
          <mxGeometry x="2450" y="77.5" width="90" height="80" as="geometry" />
        </mxCell>
        <mxCell id="SuQCljgCmP5aGSZ86cnu-82" value="&lt;font style=&quot;font-size: 14px;&quot;&gt;Trade-in&lt;/font&gt;&lt;div style=&quot;font-size: 14px;&quot;&gt;&lt;font style=&quot;font-size: 14px;&quot;&gt;Автомобили&lt;/font&gt;&lt;/div&gt;" style="ellipse;shape=umlEntity;whiteSpace=wrap;html=1;" parent="1" vertex="1">
          <mxGeometry x="2650" y="77.5" width="100" height="80" as="geometry" />
        </mxCell>
        <mxCell id="SuQCljgCmP5aGSZ86cnu-86" value="&lt;font style=&quot;font-size: 14px;&quot;&gt;7. Проверить наличие выбранного авто&lt;/font&gt;" style="html=1;verticalAlign=bottom;endArrow=block;curved=0;rounded=0;" parent="1" edge="1">
          <mxGeometry relative="1" as="geometry">
            <mxPoint x="1150" y="560" as="sourcePoint" />
            <mxPoint x="1425" y="560" as="targetPoint" />
          </mxGeometry>
        </mxCell>
        <mxCell id="SuQCljgCmP5aGSZ86cnu-87" value="&lt;font style=&quot;font-size: 14px;&quot;&gt;Система проверки наличия авто&lt;/font&gt;" style="ellipse;shape=umlControl;whiteSpace=wrap;html=1;" parent="1" vertex="1">
          <mxGeometry x="1850" y="62.5" width="110" height="95" as="geometry" />
        </mxCell>
        <mxCell id="SuQCljgCmP5aGSZ86cnu-88" value="" style="endArrow=none;dashed=1;html=1;rounded=0;" parent="1" source="SuQCljgCmP5aGSZ86cnu-131" target="SuQCljgCmP5aGSZ86cnu-80" edge="1">
          <mxGeometry width="50" height="50" relative="1" as="geometry">
            <mxPoint x="2290" y="1120" as="sourcePoint" />
            <mxPoint x="2294" y="190" as="targetPoint" />
            <Array as="points">
              <mxPoint x="2294" y="216" />
            </Array>
          </mxGeometry>
        </mxCell>
        <mxCell id="SuQCljgCmP5aGSZ86cnu-89" value="" style="endArrow=none;dashed=1;html=1;rounded=0;" parent="1" source="SuQCljgCmP5aGSZ86cnu-133" edge="1">
          <mxGeometry width="50" height="50" relative="1" as="geometry">
            <mxPoint x="2500" y="1120" as="sourcePoint" />
            <mxPoint x="2500" y="160" as="targetPoint" />
            <Array as="points">
              <mxPoint x="2500" y="250" />
            </Array>
          </mxGeometry>
        </mxCell>
        <mxCell id="SuQCljgCmP5aGSZ86cnu-90" value="" style="endArrow=none;dashed=1;html=1;rounded=0;" parent="1" edge="1">
          <mxGeometry width="50" height="50" relative="1" as="geometry">
            <mxPoint x="2700" y="1120" as="sourcePoint" />
            <mxPoint x="2699.5" y="157.5" as="targetPoint" />
            <Array as="points">
              <mxPoint x="2699.5" y="247.5" />
            </Array>
          </mxGeometry>
        </mxCell>
        <mxCell id="SuQCljgCmP5aGSZ86cnu-91" value="" style="endArrow=none;dashed=1;html=1;rounded=0;" parent="1" edge="1">
          <mxGeometry width="50" height="50" relative="1" as="geometry">
            <mxPoint x="1904.5" y="839.5" as="sourcePoint" />
            <mxPoint x="1904.5" y="157.5" as="targetPoint" />
            <Array as="points">
              <mxPoint x="1904.5" y="247.5" />
            </Array>
          </mxGeometry>
        </mxCell>
        <mxCell id="SuQCljgCmP5aGSZ86cnu-92" value="" style="html=1;points=[[0,0,0,0,5],[0,1,0,0,-5],[1,0,0,0,5],[1,1,0,0,-5]];perimeter=orthogonalPerimeter;outlineConnect=0;targetShapes=umlLifeline;portConstraint=eastwest;newEdgeStyle={&quot;curved&quot;:0,&quot;rounded&quot;:0};" parent="1" vertex="1">
          <mxGeometry x="1900" y="560" width="10" height="320" as="geometry" />
        </mxCell>
        <mxCell id="SuQCljgCmP5aGSZ86cnu-98" value="&lt;font style=&quot;font-size: 14px;&quot;&gt;8. Проверить наличие выбранного авто&lt;/font&gt;" style="html=1;verticalAlign=bottom;endArrow=block;curved=0;rounded=0;" parent="1" source="SuQCljgCmP5aGSZ86cnu-59" target="SuQCljgCmP5aGSZ86cnu-92" edge="1">
          <mxGeometry relative="1" as="geometry">
            <mxPoint x="1510" y="600" as="sourcePoint" />
            <mxPoint x="1785" y="600" as="targetPoint" />
            <Array as="points">
              <mxPoint x="1660" y="600" />
            </Array>
          </mxGeometry>
        </mxCell>
        <mxCell id="SuQCljgCmP5aGSZ86cnu-100" value="&lt;font style=&quot;font-size: 14px;&quot;&gt;9. Запрос выбранного авто среди новых автомобилей&lt;/font&gt;" style="html=1;verticalAlign=bottom;endArrow=block;curved=0;rounded=0;" parent="1" source="SuQCljgCmP5aGSZ86cnu-92" edge="1">
          <mxGeometry relative="1" as="geometry">
            <mxPoint x="1930" y="640" as="sourcePoint" />
            <mxPoint x="2290" y="640" as="targetPoint" />
            <Array as="points" />
          </mxGeometry>
        </mxCell>
        <mxCell id="SuQCljgCmP5aGSZ86cnu-101" value="&lt;font style=&quot;font-size: 14px;&quot;&gt;10. Данные о наличии нового выбранного авто&lt;/font&gt;" style="html=1;verticalAlign=bottom;endArrow=open;dashed=1;endSize=8;curved=0;rounded=0;" parent="1" target="SuQCljgCmP5aGSZ86cnu-92" edge="1">
          <mxGeometry relative="1" as="geometry">
            <mxPoint x="1920" y="679.41" as="targetPoint" />
            <mxPoint x="2290" y="680" as="sourcePoint" />
          </mxGeometry>
        </mxCell>
        <mxCell id="SuQCljgCmP5aGSZ86cnu-102" value="&lt;font style=&quot;font-size: 14px;&quot;&gt;11. Запрос выбранного авто среди Б/Уавтомобилей&lt;/font&gt;" style="html=1;verticalAlign=bottom;endArrow=block;curved=0;rounded=0;" parent="1" edge="1">
          <mxGeometry relative="1" as="geometry">
            <mxPoint x="1910" y="720" as="sourcePoint" />
            <mxPoint x="2490" y="720" as="targetPoint" />
            <Array as="points">
              <mxPoint x="2155" y="720" />
            </Array>
          </mxGeometry>
        </mxCell>
        <mxCell id="SuQCljgCmP5aGSZ86cnu-103" value="&lt;font style=&quot;font-size: 14px;&quot;&gt;12. Данные о наличии Б/У выбранного авто&lt;/font&gt;" style="html=1;verticalAlign=bottom;endArrow=open;dashed=1;endSize=8;curved=0;rounded=0;" parent="1" edge="1">
          <mxGeometry relative="1" as="geometry">
            <mxPoint x="1910" y="760" as="targetPoint" />
            <mxPoint x="2500" y="760" as="sourcePoint" />
          </mxGeometry>
        </mxCell>
        <mxCell id="SuQCljgCmP5aGSZ86cnu-104" value="&lt;font style=&quot;font-size: 14px;&quot;&gt;13. Запрос выбранного авто среди Trade-in автомобилей&lt;/font&gt;" style="html=1;verticalAlign=bottom;endArrow=block;curved=0;rounded=0;" parent="1" target="SuQCljgCmP5aGSZ86cnu-135" edge="1">
          <mxGeometry relative="1" as="geometry">
            <mxPoint x="1910" y="800" as="sourcePoint" />
            <mxPoint x="2690" y="800" as="targetPoint" />
            <Array as="points">
              <mxPoint x="2155" y="800" />
            </Array>
          </mxGeometry>
        </mxCell>
        <mxCell id="SuQCljgCmP5aGSZ86cnu-105" value="&lt;font style=&quot;font-size: 14px;&quot;&gt;14. Данные о наличии Trade-in выбранного авто&lt;/font&gt;" style="html=1;verticalAlign=bottom;endArrow=open;dashed=1;endSize=8;curved=0;rounded=0;" parent="1" edge="1">
          <mxGeometry relative="1" as="geometry">
            <mxPoint x="1910" y="840" as="targetPoint" />
            <mxPoint x="2700" y="840" as="sourcePoint" />
          </mxGeometry>
        </mxCell>
        <mxCell id="SuQCljgCmP5aGSZ86cnu-108" value="&lt;font style=&quot;font-size: 14px;&quot;&gt;15. Данные о наличии авто&lt;/font&gt;" style="html=1;verticalAlign=bottom;endArrow=open;dashed=1;endSize=8;curved=0;rounded=0;" parent="1" target="SuQCljgCmP5aGSZ86cnu-59" edge="1">
          <mxGeometry relative="1" as="geometry">
            <mxPoint x="1520" y="870" as="targetPoint" />
            <mxPoint x="1900" y="870" as="sourcePoint" />
          </mxGeometry>
        </mxCell>
        <mxCell id="SuQCljgCmP5aGSZ86cnu-109" value="&lt;font style=&quot;font-size: 14px;&quot;&gt;16. Данные о наличии авто&lt;/font&gt;" style="html=1;verticalAlign=bottom;endArrow=open;dashed=1;endSize=8;curved=0;rounded=0;" parent="1" edge="1">
          <mxGeometry relative="1" as="geometry">
            <mxPoint x="1150" y="910" as="targetPoint" />
            <mxPoint x="1425" y="910" as="sourcePoint" />
          </mxGeometry>
        </mxCell>
        <mxCell id="SuQCljgCmP5aGSZ86cnu-110" value="&lt;font style=&quot;font-size: 14px;&quot;&gt;17. Сформировать заказ&lt;/font&gt;" style="html=1;verticalAlign=bottom;endArrow=block;curved=0;rounded=0;" parent="1" edge="1">
          <mxGeometry relative="1" as="geometry">
            <mxPoint x="1150" y="960" as="sourcePoint" />
            <mxPoint x="1425" y="960" as="targetPoint" />
          </mxGeometry>
        </mxCell>
        <mxCell id="SuQCljgCmP5aGSZ86cnu-111" value="" style="endArrow=none;dashed=1;html=1;rounded=0;" parent="1" source="SuQCljgCmP5aGSZ86cnu-112" target="SuQCljgCmP5aGSZ86cnu-63" edge="1">
          <mxGeometry width="50" height="50" relative="1" as="geometry">
            <mxPoint x="1714" y="1010" as="sourcePoint" />
            <mxPoint x="1714.47" y="470" as="targetPoint" />
          </mxGeometry>
        </mxCell>
        <mxCell id="SuQCljgCmP5aGSZ86cnu-113" value="" style="endArrow=none;dashed=1;html=1;rounded=0;" parent="1" target="SuQCljgCmP5aGSZ86cnu-112" edge="1">
          <mxGeometry width="50" height="50" relative="1" as="geometry">
            <mxPoint x="1714" y="1010" as="sourcePoint" />
            <mxPoint x="1714" y="460" as="targetPoint" />
          </mxGeometry>
        </mxCell>
        <mxCell id="SuQCljgCmP5aGSZ86cnu-112" value="" style="html=1;points=[[0,0,0,0,5],[0,1,0,0,-5],[1,0,0,0,5],[1,1,0,0,-5]];perimeter=orthogonalPerimeter;outlineConnect=0;targetShapes=umlLifeline;portConstraint=eastwest;newEdgeStyle={&quot;curved&quot;:0,&quot;rounded&quot;:0};" parent="1" vertex="1">
          <mxGeometry x="1710" y="932.5" width="10" height="187.5" as="geometry" />
        </mxCell>
        <mxCell id="SuQCljgCmP5aGSZ86cnu-114" value="&lt;font style=&quot;font-size: 14px;&quot;&gt;18. Сформировать заказ&lt;/font&gt;" style="html=1;verticalAlign=bottom;endArrow=block;curved=0;rounded=0;" parent="1" edge="1">
          <mxGeometry relative="1" as="geometry">
            <mxPoint x="1435" y="980" as="sourcePoint" />
            <mxPoint x="1710" y="980" as="targetPoint" />
          </mxGeometry>
        </mxCell>
        <mxCell id="SuQCljgCmP5aGSZ86cnu-117" value="" style="endArrow=none;dashed=1;html=1;rounded=0;entryX=0.5;entryY=1;entryDx=0;entryDy=0;" parent="1" target="SuQCljgCmP5aGSZ86cnu-116" edge="1">
          <mxGeometry width="50" height="50" relative="1" as="geometry">
            <mxPoint x="2095" y="1130" as="sourcePoint" />
            <mxPoint x="2095" y="460" as="targetPoint" />
          </mxGeometry>
        </mxCell>
        <mxCell id="SuQCljgCmP5aGSZ86cnu-116" value="" style="html=1;points=[[0,0,0,0,5],[0,1,0,0,-5],[1,0,0,0,5],[1,1,0,0,-5]];perimeter=orthogonalPerimeter;outlineConnect=0;targetShapes=umlLifeline;portConstraint=eastwest;newEdgeStyle={&quot;curved&quot;:0,&quot;rounded&quot;:0};" parent="1" vertex="1">
          <mxGeometry x="2090" y="1010" width="10" height="85" as="geometry" />
        </mxCell>
        <mxCell id="SuQCljgCmP5aGSZ86cnu-118" value="&lt;font style=&quot;font-size: 14px;&quot;&gt;19. Запрос на занесение заказа в базу данных&lt;/font&gt;" style="html=1;verticalAlign=bottom;endArrow=block;curved=0;rounded=0;" parent="1" target="SuQCljgCmP5aGSZ86cnu-116" edge="1">
          <mxGeometry relative="1" as="geometry">
            <mxPoint x="1720" y="1020" as="sourcePoint" />
            <mxPoint x="1995" y="1020" as="targetPoint" />
          </mxGeometry>
        </mxCell>
        <mxCell id="SuQCljgCmP5aGSZ86cnu-119" value="&lt;font style=&quot;font-size: 14px;&quot;&gt;20. Заказ в базе данных&lt;/font&gt;" style="html=1;verticalAlign=bottom;endArrow=open;dashed=1;endSize=8;curved=0;rounded=0;" parent="1" target="SuQCljgCmP5aGSZ86cnu-112" edge="1">
          <mxGeometry relative="1" as="geometry">
            <mxPoint x="1815" y="1080" as="targetPoint" />
            <mxPoint x="2090" y="1080" as="sourcePoint" />
          </mxGeometry>
        </mxCell>
        <mxCell id="SuQCljgCmP5aGSZ86cnu-120" value="&lt;font style=&quot;font-size: 14px;&quot;&gt;21. Заказ сформирован&lt;/font&gt;" style="html=1;verticalAlign=bottom;endArrow=open;dashed=1;endSize=8;curved=0;rounded=0;" parent="1" target="SuQCljgCmP5aGSZ86cnu-59" edge="1">
          <mxGeometry relative="1" as="geometry">
            <mxPoint x="1400" y="1095" as="targetPoint" />
            <mxPoint x="1710" y="1095" as="sourcePoint" />
          </mxGeometry>
        </mxCell>
        <mxCell id="SuQCljgCmP5aGSZ86cnu-121" value="&lt;font style=&quot;font-size: 14px;&quot;&gt;22. Заказ сформирован&lt;/font&gt;" style="html=1;verticalAlign=bottom;endArrow=open;dashed=1;endSize=8;curved=0;rounded=0;" parent="1" edge="1">
          <mxGeometry relative="1" as="geometry">
            <mxPoint x="1150" y="1110" as="targetPoint" />
            <mxPoint x="1425" y="1110" as="sourcePoint" />
          </mxGeometry>
        </mxCell>
        <mxCell id="SuQCljgCmP5aGSZ86cnu-122" value="&lt;font style=&quot;font-size: 14px;&quot;&gt;Менеджер&lt;/font&gt;" style="shape=umlActor;verticalLabelPosition=bottom;verticalAlign=top;html=1;outlineConnect=0;" parent="1" vertex="1">
          <mxGeometry x="3445" y="563" width="30" height="60" as="geometry" />
        </mxCell>
        <mxCell id="SuQCljgCmP5aGSZ86cnu-123" value="&lt;font style=&quot;font-size: 14px;&quot;&gt;Интерфейс автосалона&lt;/font&gt;&lt;div&gt;&lt;font style=&quot;font-size: 14px;&quot;&gt;(сайт)&lt;/font&gt;&lt;/div&gt;" style="shape=umlBoundary;whiteSpace=wrap;html=1;" parent="1" vertex="1">
          <mxGeometry x="3530" y="285" width="100" height="80" as="geometry" />
        </mxCell>
        <mxCell id="SuQCljgCmP5aGSZ86cnu-124" value="&lt;font style=&quot;font-size: 14px;&quot;&gt;Система управления заказами&lt;/font&gt;" style="ellipse;shape=umlControl;whiteSpace=wrap;html=1;" parent="1" vertex="1">
          <mxGeometry x="3880" y="217.5" width="90" height="95" as="geometry" />
        </mxCell>
        <mxCell id="SuQCljgCmP5aGSZ86cnu-126" value="&lt;font style=&quot;font-size: 14px;&quot;&gt;Заказы&lt;/font&gt;" style="ellipse;shape=umlEntity;whiteSpace=wrap;html=1;" parent="1" vertex="1">
          <mxGeometry x="4180" y="530" width="90" height="80" as="geometry" />
        </mxCell>
        <mxCell id="SuQCljgCmP5aGSZ86cnu-132" value="" style="endArrow=none;dashed=1;html=1;rounded=0;" parent="1" target="SuQCljgCmP5aGSZ86cnu-131" edge="1">
          <mxGeometry width="50" height="50" relative="1" as="geometry">
            <mxPoint x="2290" y="1120" as="sourcePoint" />
            <mxPoint x="2295" y="155" as="targetPoint" />
            <Array as="points" />
          </mxGeometry>
        </mxCell>
        <mxCell id="SuQCljgCmP5aGSZ86cnu-131" value="" style="html=1;points=[[0,0,0,0,5],[0,1,0,0,-5],[1,0,0,0,5],[1,1,0,0,-5]];perimeter=orthogonalPerimeter;outlineConnect=0;targetShapes=umlLifeline;portConstraint=eastwest;newEdgeStyle={&quot;curved&quot;:0,&quot;rounded&quot;:0};" parent="1" vertex="1">
          <mxGeometry x="2290" y="623" width="10" height="67" as="geometry" />
        </mxCell>
        <mxCell id="SuQCljgCmP5aGSZ86cnu-134" value="" style="endArrow=none;dashed=1;html=1;rounded=0;" parent="1" target="SuQCljgCmP5aGSZ86cnu-133" edge="1">
          <mxGeometry width="50" height="50" relative="1" as="geometry">
            <mxPoint x="2500" y="1120" as="sourcePoint" />
            <mxPoint x="2500" y="160" as="targetPoint" />
            <Array as="points" />
          </mxGeometry>
        </mxCell>
        <mxCell id="SuQCljgCmP5aGSZ86cnu-133" value="" style="html=1;points=[[0,0,0,0,5],[0,1,0,0,-5],[1,0,0,0,5],[1,1,0,0,-5]];perimeter=orthogonalPerimeter;outlineConnect=0;targetShapes=umlLifeline;portConstraint=eastwest;newEdgeStyle={&quot;curved&quot;:0,&quot;rounded&quot;:0};" parent="1" vertex="1">
          <mxGeometry x="2490" y="700" width="10" height="70" as="geometry" />
        </mxCell>
        <mxCell id="SuQCljgCmP5aGSZ86cnu-135" value="" style="html=1;points=[[0,0,0,0,5],[0,1,0,0,-5],[1,0,0,0,5],[1,1,0,0,-5]];perimeter=orthogonalPerimeter;outlineConnect=0;targetShapes=umlLifeline;portConstraint=eastwest;newEdgeStyle={&quot;curved&quot;:0,&quot;rounded&quot;:0};" parent="1" vertex="1">
          <mxGeometry x="2695" y="786.5" width="10" height="67" as="geometry" />
        </mxCell>
        <mxCell id="SuQCljgCmP5aGSZ86cnu-139" value="" style="endArrow=none;html=1;rounded=0;" parent="1" source="SuQCljgCmP5aGSZ86cnu-122" target="SuQCljgCmP5aGSZ86cnu-123" edge="1">
          <mxGeometry width="50" height="50" relative="1" as="geometry">
            <mxPoint x="3400" y="500" as="sourcePoint" />
            <mxPoint x="3450" y="450" as="targetPoint" />
          </mxGeometry>
        </mxCell>
        <mxCell id="SuQCljgCmP5aGSZ86cnu-140" value="" style="endArrow=none;html=1;rounded=0;" parent="1" source="SuQCljgCmP5aGSZ86cnu-123" target="SuQCljgCmP5aGSZ86cnu-124" edge="1">
          <mxGeometry width="50" height="50" relative="1" as="geometry">
            <mxPoint x="3300" y="554" as="sourcePoint" />
            <mxPoint x="3540" y="373" as="targetPoint" />
          </mxGeometry>
        </mxCell>
        <mxCell id="SuQCljgCmP5aGSZ86cnu-141" value="" style="endArrow=none;html=1;rounded=0;" parent="1" source="SuQCljgCmP5aGSZ86cnu-124" target="SuQCljgCmP5aGSZ86cnu-126" edge="1">
          <mxGeometry width="50" height="50" relative="1" as="geometry">
            <mxPoint x="3750" y="501" as="sourcePoint" />
            <mxPoint x="4168.286546909818" y="357.42696447555704" as="targetPoint" />
          </mxGeometry>
        </mxCell>
        <mxCell id="SuQCljgCmP5aGSZ86cnu-147" value="" style="endArrow=none;html=1;rounded=0;" parent="1" source="SuQCljgCmP5aGSZ86cnu-123" target="SuQCljgCmP5aGSZ86cnu-148" edge="1">
          <mxGeometry width="50" height="50" relative="1" as="geometry">
            <mxPoint x="3640" y="315" as="sourcePoint" />
            <mxPoint x="3730" y="120" as="targetPoint" />
          </mxGeometry>
        </mxCell>
        <mxCell id="SuQCljgCmP5aGSZ86cnu-148" value="&lt;font style=&quot;font-size: 14px;&quot;&gt;Система проверки наличия авто&lt;/font&gt;" style="ellipse;shape=umlControl;whiteSpace=wrap;html=1;" parent="1" vertex="1">
          <mxGeometry x="3630" y="-55" width="110" height="95" as="geometry" />
        </mxCell>
        <mxCell id="SuQCljgCmP5aGSZ86cnu-149" value="&lt;font style=&quot;font-size: 14px;&quot;&gt;Автомобили&lt;/font&gt;" style="ellipse;shape=umlEntity;whiteSpace=wrap;html=1;" parent="1" vertex="1">
          <mxGeometry x="4175" y="-10" width="90" height="80" as="geometry" />
        </mxCell>
        <mxCell id="SuQCljgCmP5aGSZ86cnu-151" value="" style="endArrow=none;html=1;rounded=0;" parent="1" source="SuQCljgCmP5aGSZ86cnu-148" target="SuQCljgCmP5aGSZ86cnu-149" edge="1">
          <mxGeometry width="50" height="50" relative="1" as="geometry">
            <mxPoint x="3619" y="295" as="sourcePoint" />
            <mxPoint x="3746" y="118" as="targetPoint" />
          </mxGeometry>
        </mxCell>
        <mxCell id="SuQCljgCmP5aGSZ86cnu-153" value="" style="endArrow=classic;html=1;rounded=0;" parent="1" edge="1">
          <mxGeometry width="50" height="50" relative="1" as="geometry">
            <mxPoint x="3470" y="530" as="sourcePoint" />
            <mxPoint x="3530" y="395" as="targetPoint" />
          </mxGeometry>
        </mxCell>
        <mxCell id="SuQCljgCmP5aGSZ86cnu-154" value="&lt;span style=&quot;font-size: 14px; background-color: rgb(255, 255, 255);&quot;&gt;1. Запросить новые онлайн-заказы&lt;/span&gt;" style="text;html=1;align=center;verticalAlign=middle;resizable=0;points=[];autosize=1;strokeColor=none;fillColor=none;rotation=-65;" parent="1" vertex="1">
          <mxGeometry x="3310" y="435" width="250" height="30" as="geometry" />
        </mxCell>
        <mxCell id="SuQCljgCmP5aGSZ86cnu-156" value="&lt;span style=&quot;font-size: 14px; background-color: rgb(255, 255, 255);&quot;&gt;2. Просмотр новых онлайн-заказов&lt;/span&gt;" style="text;html=1;align=center;verticalAlign=middle;resizable=0;points=[];autosize=1;strokeColor=none;fillColor=none;rotation=-10;" parent="1" vertex="1">
          <mxGeometry x="3630" y="250" width="250" height="30" as="geometry" />
        </mxCell>
        <mxCell id="SuQCljgCmP5aGSZ86cnu-157" value="" style="endArrow=classic;html=1;rounded=0;" parent="1" edge="1">
          <mxGeometry width="50" height="50" relative="1" as="geometry">
            <mxPoint x="4025" y="335" as="sourcePoint" />
            <mxPoint x="4145" y="450" as="targetPoint" />
          </mxGeometry>
        </mxCell>
        <mxCell id="SuQCljgCmP5aGSZ86cnu-158" value="&lt;span style=&quot;font-size: 14px; background-color: rgb(255, 255, 255);&quot;&gt;3. Запрос новых онлайн-заказов&lt;/span&gt;" style="text;html=1;align=center;verticalAlign=middle;resizable=0;points=[];autosize=1;strokeColor=none;fillColor=none;rotation=45;" parent="1" vertex="1">
          <mxGeometry x="3990" y="365" width="230" height="30" as="geometry" />
        </mxCell>
        <mxCell id="SuQCljgCmP5aGSZ86cnu-159" value="" style="endArrow=classic;html=1;rounded=0;" parent="1" edge="1">
          <mxGeometry width="50" height="50" relative="1" as="geometry">
            <mxPoint x="4060" y="515" as="sourcePoint" />
            <mxPoint x="3930" y="385" as="targetPoint" />
          </mxGeometry>
        </mxCell>
        <mxCell id="SuQCljgCmP5aGSZ86cnu-160" value="&lt;span style=&quot;font-size: 14px; background-color: rgb(255, 255, 255);&quot;&gt;4. Данные о новых онлайн-заказах&lt;/span&gt;" style="text;html=1;align=center;verticalAlign=middle;resizable=0;points=[];autosize=1;strokeColor=none;fillColor=none;rotation=45;" parent="1" vertex="1">
          <mxGeometry x="3885" y="420" width="250" height="30" as="geometry" />
        </mxCell>
        <mxCell id="SuQCljgCmP5aGSZ86cnu-162" value="&lt;span style=&quot;font-size: 14px; background-color: rgb(255, 255, 255);&quot;&gt;5. Данные о новых онлайн-заказах&lt;/span&gt;" style="text;html=1;align=center;verticalAlign=middle;resizable=0;points=[];autosize=1;strokeColor=none;fillColor=none;rotation=-10;" parent="1" vertex="1">
          <mxGeometry x="3652" y="320" width="250" height="30" as="geometry" />
        </mxCell>
        <mxCell id="SuQCljgCmP5aGSZ86cnu-163" value="" style="endArrow=classic;html=1;rounded=0;" parent="1" edge="1">
          <mxGeometry width="50" height="50" relative="1" as="geometry">
            <mxPoint x="3640" y="410" as="sourcePoint" />
            <mxPoint x="3570" y="590" as="targetPoint" />
          </mxGeometry>
        </mxCell>
        <mxCell id="SuQCljgCmP5aGSZ86cnu-164" value="&lt;span style=&quot;font-size: 14px; background-color: rgb(255, 255, 255);&quot;&gt;6. Данные о новых онлайн-заказах&lt;/span&gt;" style="text;html=1;align=center;verticalAlign=middle;resizable=0;points=[];autosize=1;strokeColor=none;fillColor=none;rotation=-69;" parent="1" vertex="1">
          <mxGeometry x="3410" y="465" width="250" height="30" as="geometry" />
        </mxCell>
        <mxCell id="SuQCljgCmP5aGSZ86cnu-166" value="&lt;span style=&quot;font-size: 14px; background-color: rgb(255, 255, 255);&quot;&gt;7. Проверить наличие выбранного авто&lt;/span&gt;" style="text;html=1;align=center;verticalAlign=middle;resizable=0;points=[];autosize=1;strokeColor=none;fillColor=none;rotation=-65;" parent="1" vertex="1">
          <mxGeometry x="3320" y="435" width="280" height="30" as="geometry" />
        </mxCell>
        <mxCell id="SuQCljgCmP5aGSZ86cnu-167" value="" style="endArrow=classic;html=1;rounded=0;" parent="1" edge="1">
          <mxGeometry width="50" height="50" relative="1" as="geometry">
            <mxPoint x="3580" y="253" as="sourcePoint" />
            <mxPoint x="3640" y="53" as="targetPoint" />
          </mxGeometry>
        </mxCell>
        <mxCell id="SuQCljgCmP5aGSZ86cnu-168" value="&lt;span style=&quot;font-size: 14px; background-color: rgb(255, 255, 255);&quot;&gt;8. Проверить наличие выбранного авто&lt;/span&gt;" style="text;html=1;align=center;verticalAlign=middle;resizable=0;points=[];autosize=1;strokeColor=none;fillColor=none;rotation=-70;" parent="1" vertex="1">
          <mxGeometry x="3445" y="150" width="280" height="30" as="geometry" />
        </mxCell>
        <mxCell id="SuQCljgCmP5aGSZ86cnu-169" value="" style="endArrow=classic;html=1;rounded=0;" parent="1" edge="1">
          <mxGeometry width="50" height="50" relative="1" as="geometry">
            <mxPoint x="3830" y="-10" as="sourcePoint" />
            <mxPoint x="4140" y="10" as="targetPoint" />
          </mxGeometry>
        </mxCell>
        <mxCell id="SuQCljgCmP5aGSZ86cnu-170" value="&lt;span style=&quot;font-size: 14px; background-color: rgb(255, 255, 255);&quot;&gt;9. Запрос выбранного авто среди новых автомобилей&lt;/span&gt;" style="text;html=1;align=center;verticalAlign=middle;resizable=0;points=[];autosize=1;strokeColor=none;fillColor=none;rotation=5;" parent="1" vertex="1">
          <mxGeometry x="3800" y="-40" width="380" height="30" as="geometry" />
        </mxCell>
        <mxCell id="SuQCljgCmP5aGSZ86cnu-171" value="&lt;span style=&quot;font-size: 14px; background-color: rgb(255, 255, 255);&quot;&gt;10. Данные о наличии нового выбранного авто&lt;/span&gt;" style="text;html=1;align=center;verticalAlign=middle;resizable=0;points=[];autosize=1;strokeColor=none;fillColor=none;rotation=0;" parent="1" vertex="1">
          <mxGeometry x="3780" y="20" width="330" height="30" as="geometry" />
        </mxCell>
        <mxCell id="SuQCljgCmP5aGSZ86cnu-172" value="" style="endArrow=classic;html=1;rounded=0;" parent="1" edge="1">
          <mxGeometry width="50" height="50" relative="1" as="geometry">
            <mxPoint x="4100" y="62.5" as="sourcePoint" />
            <mxPoint x="3770" y="52.5" as="targetPoint" />
          </mxGeometry>
        </mxCell>
        <mxCell id="SuQCljgCmP5aGSZ86cnu-173" value="&lt;font style=&quot;font-size: 14px;&quot;&gt;Б/У Автомобили&lt;/font&gt;" style="ellipse;shape=umlEntity;whiteSpace=wrap;html=1;" parent="1" vertex="1">
          <mxGeometry x="3960" y="-320" width="90" height="80" as="geometry" />
        </mxCell>
        <mxCell id="SuQCljgCmP5aGSZ86cnu-174" value="" style="endArrow=none;html=1;rounded=0;" parent="1" source="SuQCljgCmP5aGSZ86cnu-148" target="SuQCljgCmP5aGSZ86cnu-173" edge="1">
          <mxGeometry width="50" height="50" relative="1" as="geometry">
            <mxPoint x="3601" y="295" as="sourcePoint" />
            <mxPoint x="3663" y="59" as="targetPoint" />
          </mxGeometry>
        </mxCell>
        <mxCell id="SuQCljgCmP5aGSZ86cnu-175" value="&lt;span style=&quot;font-size: 14px; background-color: rgb(255, 255, 255);&quot;&gt;11. Запрос выбранного авто среди Б/Уавтомобилей&lt;/span&gt;" style="text;html=1;align=center;verticalAlign=middle;resizable=0;points=[];autosize=1;strokeColor=none;fillColor=none;rotation=-45;" parent="1" vertex="1">
          <mxGeometry x="3652" y="-200" width="360" height="30" as="geometry" />
        </mxCell>
        <mxCell id="SuQCljgCmP5aGSZ86cnu-176" value="" style="endArrow=classic;html=1;rounded=0;" parent="1" edge="1">
          <mxGeometry width="50" height="50" relative="1" as="geometry">
            <mxPoint x="3722" y="-55" as="sourcePoint" />
            <mxPoint x="3942" y="-257.5" as="targetPoint" />
          </mxGeometry>
        </mxCell>
        <mxCell id="SuQCljgCmP5aGSZ86cnu-177" value="" style="endArrow=classic;html=1;rounded=0;" parent="1" edge="1">
          <mxGeometry width="50" height="50" relative="1" as="geometry">
            <mxPoint x="4000" y="-225" as="sourcePoint" />
            <mxPoint x="3810" y="-65" as="targetPoint" />
          </mxGeometry>
        </mxCell>
        <mxCell id="SuQCljgCmP5aGSZ86cnu-178" value="&lt;span style=&quot;font-size: 14px; background-color: rgb(255, 255, 255);&quot;&gt;12. Данные о наличии Б/У выбранного авто&lt;/span&gt;" style="text;html=1;align=center;verticalAlign=middle;resizable=0;points=[];autosize=1;strokeColor=none;fillColor=none;rotation=-40;" parent="1" vertex="1">
          <mxGeometry x="3730" y="-160" width="310" height="30" as="geometry" />
        </mxCell>
        <mxCell id="SuQCljgCmP5aGSZ86cnu-179" value="&lt;font style=&quot;font-size: 14px;&quot;&gt;Trade-in&lt;/font&gt;&lt;div style=&quot;font-size: 14px;&quot;&gt;&lt;font style=&quot;font-size: 14px;&quot;&gt;Автомобили&lt;/font&gt;&lt;/div&gt;" style="ellipse;shape=umlEntity;whiteSpace=wrap;html=1;" parent="1" vertex="1">
          <mxGeometry x="3280" y="-320" width="100" height="80" as="geometry" />
        </mxCell>
        <mxCell id="SuQCljgCmP5aGSZ86cnu-180" value="" style="endArrow=none;html=1;rounded=0;" parent="1" source="SuQCljgCmP5aGSZ86cnu-148" target="SuQCljgCmP5aGSZ86cnu-179" edge="1">
          <mxGeometry width="50" height="50" relative="1" as="geometry">
            <mxPoint x="3510" y="-130" as="sourcePoint" />
            <mxPoint x="3560" y="-180" as="targetPoint" />
          </mxGeometry>
        </mxCell>
        <mxCell id="SuQCljgCmP5aGSZ86cnu-181" value="&lt;span style=&quot;font-size: 14px; background-color: rgb(255, 255, 255);&quot;&gt;13. Запрос выбранного авто среди Trade-in автомобилей&lt;/span&gt;" style="text;html=1;align=center;verticalAlign=middle;resizable=0;points=[];autosize=1;strokeColor=none;fillColor=none;rotation=40;" parent="1" vertex="1">
          <mxGeometry x="3340" y="-190" width="390" height="30" as="geometry" />
        </mxCell>
        <mxCell id="SuQCljgCmP5aGSZ86cnu-182" value="" style="endArrow=classic;html=1;rounded=0;" parent="1" edge="1">
          <mxGeometry width="50" height="50" relative="1" as="geometry">
            <mxPoint x="3650" y="-55" as="sourcePoint" />
            <mxPoint x="3390" y="-275" as="targetPoint" />
          </mxGeometry>
        </mxCell>
        <mxCell id="SuQCljgCmP5aGSZ86cnu-183" value="" style="endArrow=classic;html=1;rounded=0;" parent="1" edge="1">
          <mxGeometry width="50" height="50" relative="1" as="geometry">
            <mxPoint x="3350" y="-210" as="sourcePoint" />
            <mxPoint x="3590" y="-10" as="targetPoint" />
          </mxGeometry>
        </mxCell>
        <mxCell id="SuQCljgCmP5aGSZ86cnu-184" value="&lt;span style=&quot;font-size: 14px; background-color: rgb(255, 255, 255);&quot;&gt;14. Данные о наличии Trade-in выбранного авто&lt;/span&gt;" style="text;html=1;align=center;verticalAlign=middle;resizable=0;points=[];autosize=1;strokeColor=none;fillColor=none;rotation=40;" parent="1" vertex="1">
          <mxGeometry x="3312" y="-140" width="340" height="30" as="geometry" />
        </mxCell>
        <mxCell id="SuQCljgCmP5aGSZ86cnu-185" value="" style="endArrow=classic;html=1;rounded=0;" parent="1" edge="1">
          <mxGeometry width="50" height="50" relative="1" as="geometry">
            <mxPoint x="3698" y="62.5" as="sourcePoint" />
            <mxPoint x="3630" y="262.5" as="targetPoint" />
          </mxGeometry>
        </mxCell>
        <mxCell id="SuQCljgCmP5aGSZ86cnu-186" value="&lt;span style=&quot;font-size: 14px; background-color: rgb(255, 255, 255);&quot;&gt;15. Данные о наличии авто&lt;/span&gt;" style="text;html=1;align=center;verticalAlign=middle;resizable=0;points=[];autosize=1;strokeColor=none;fillColor=none;rotation=-70;" parent="1" vertex="1">
          <mxGeometry x="3550" y="150" width="200" height="30" as="geometry" />
        </mxCell>
        <mxCell id="SuQCljgCmP5aGSZ86cnu-188" value="&lt;span style=&quot;font-size: 14px; background-color: rgb(255, 255, 255);&quot;&gt;16. Данные о наличии авто&lt;/span&gt;" style="text;html=1;align=center;verticalAlign=middle;resizable=0;points=[];autosize=1;strokeColor=none;fillColor=none;rotation=-71;" parent="1" vertex="1">
          <mxGeometry x="3460" y="470" width="200" height="30" as="geometry" />
        </mxCell>
        <mxCell id="SuQCljgCmP5aGSZ86cnu-190" value="&lt;span style=&quot;font-size: 14px; background-color: rgb(255, 255, 255);&quot;&gt;17. Сформировать заказ&lt;/span&gt;" style="text;html=1;align=center;verticalAlign=middle;resizable=0;points=[];autosize=1;strokeColor=none;fillColor=none;rotation=-65;" parent="1" vertex="1">
          <mxGeometry x="3390" y="440" width="180" height="30" as="geometry" />
        </mxCell>
        <mxCell id="SuQCljgCmP5aGSZ86cnu-191" value="" style="endArrow=classic;html=1;rounded=0;" parent="1" edge="1">
          <mxGeometry width="50" height="50" relative="1" as="geometry">
            <mxPoint x="3660" y="300" as="sourcePoint" />
            <mxPoint x="3858" y="260" as="targetPoint" />
          </mxGeometry>
        </mxCell>
        <mxCell id="SuQCljgCmP5aGSZ86cnu-192" value="&lt;span style=&quot;font-size: 14px; background-color: rgb(255, 255, 255);&quot;&gt;18. Сформировать заказ&lt;/span&gt;" style="text;html=1;align=center;verticalAlign=middle;resizable=0;points=[];autosize=1;strokeColor=none;fillColor=none;rotation=-10;" parent="1" vertex="1">
          <mxGeometry x="3660" y="230" width="180" height="30" as="geometry" />
        </mxCell>
        <mxCell id="SuQCljgCmP5aGSZ86cnu-194" value="&lt;span style=&quot;font-size: 14px; background-color: rgb(255, 255, 255);&quot;&gt;19. Запрос на занесение заказа в базу данных&lt;/span&gt;" style="text;html=1;align=center;verticalAlign=middle;resizable=0;points=[];autosize=1;strokeColor=none;fillColor=none;rotation=45;" parent="1" vertex="1">
          <mxGeometry x="3970" y="360" width="330" height="30" as="geometry" />
        </mxCell>
        <mxCell id="SuQCljgCmP5aGSZ86cnu-196" value="&lt;span style=&quot;font-size: 14px; background-color: rgb(255, 255, 255);&quot;&gt;20. Заказ в базе данных&lt;/span&gt;" style="text;html=1;align=center;verticalAlign=middle;resizable=0;points=[];autosize=1;strokeColor=none;fillColor=none;rotation=45;" parent="1" vertex="1">
          <mxGeometry x="3940" y="402.5" width="180" height="30" as="geometry" />
        </mxCell>
        <mxCell id="SuQCljgCmP5aGSZ86cnu-197" value="" style="endArrow=classic;html=1;rounded=0;" parent="1" edge="1">
          <mxGeometry width="50" height="50" relative="1" as="geometry">
            <mxPoint x="3890" y="335" as="sourcePoint" />
            <mxPoint x="3660" y="375" as="targetPoint" />
          </mxGeometry>
        </mxCell>
        <mxCell id="SuQCljgCmP5aGSZ86cnu-198" value="&lt;span style=&quot;font-size: 14px; background-color: rgb(255, 255, 255);&quot;&gt;21. Заказ сформирован&lt;/span&gt;" style="text;html=1;align=center;verticalAlign=middle;resizable=0;points=[];autosize=1;strokeColor=none;fillColor=none;rotation=-10;" parent="1" vertex="1">
          <mxGeometry x="3675" y="300" width="180" height="30" as="geometry" />
        </mxCell>
        <mxCell id="SuQCljgCmP5aGSZ86cnu-200" value="&lt;span style=&quot;font-size: 14px; background-color: rgb(255, 255, 255);&quot;&gt;22. Заказ сформирован&lt;/span&gt;" style="text;html=1;align=center;verticalAlign=middle;resizable=0;points=[];autosize=1;strokeColor=none;fillColor=none;rotation=-70;" parent="1" vertex="1">
          <mxGeometry x="3495" y="475" width="180" height="30" as="geometry" />
        </mxCell>
        <mxCell id="_zAuOo6nP1jeq1UeCMe_-1" value="&lt;font style=&quot;font-size: 14px;&quot;&gt;&amp;lt;&amp;lt;Boundary&amp;gt;&amp;gt;&lt;br&gt;Интерфейс салона (сайт)&lt;/font&gt;" style="swimlane;fontStyle=1;align=center;verticalAlign=top;childLayout=stackLayout;horizontal=1;startSize=60;horizontalStack=0;resizeParent=1;resizeParentMax=0;resizeLast=0;collapsible=1;marginBottom=0;whiteSpace=wrap;html=1;" parent="1" vertex="1">
          <mxGeometry x="3800" y="932.5" width="160" height="68" as="geometry" />
        </mxCell>
        <mxCell id="_zAuOo6nP1jeq1UeCMe_-3" value="" style="line;strokeWidth=1;fillColor=none;align=left;verticalAlign=middle;spacingTop=-1;spacingLeft=3;spacingRight=3;rotatable=0;labelPosition=right;points=[];portConstraint=eastwest;strokeColor=inherit;" parent="_zAuOo6nP1jeq1UeCMe_-1" vertex="1">
          <mxGeometry y="60" width="160" height="8" as="geometry" />
        </mxCell>
        <mxCell id="_zAuOo6nP1jeq1UeCMe_-7" value="&lt;font style=&quot;font-size: 14px;&quot;&gt;&amp;lt;&amp;lt;Control&amp;gt;&amp;gt;&lt;/font&gt;&lt;div style=&quot;font-size: 14px;&quot;&gt;&lt;font style=&quot;font-size: 14px;&quot;&gt;Система управления заказами&lt;br&gt;&lt;/font&gt;&lt;div&gt;&lt;br&gt;&lt;/div&gt;&lt;/div&gt;" style="swimlane;fontStyle=1;align=center;verticalAlign=top;childLayout=stackLayout;horizontal=1;startSize=58;horizontalStack=0;resizeParent=1;resizeParentMax=0;resizeLast=0;collapsible=1;marginBottom=0;whiteSpace=wrap;html=1;" parent="1" vertex="1">
          <mxGeometry x="3520" y="1082" width="200" height="172" as="geometry" />
        </mxCell>
        <mxCell id="_zAuOo6nP1jeq1UeCMe_-9" value="" style="line;strokeWidth=1;fillColor=none;align=left;verticalAlign=middle;spacingTop=-1;spacingLeft=3;spacingRight=3;rotatable=0;labelPosition=right;points=[];portConstraint=eastwest;strokeColor=inherit;" parent="_zAuOo6nP1jeq1UeCMe_-7" vertex="1">
          <mxGeometry y="58" width="200" height="8" as="geometry" />
        </mxCell>
        <mxCell id="_zAuOo6nP1jeq1UeCMe_-10" value="&lt;font style=&quot;font-size: 14px;&quot;&gt;+ Просмотреть новые заказы (): Список заказов&lt;/font&gt;&lt;div style=&quot;font-size: 14px;&quot;&gt;&lt;font style=&quot;font-size: 14px;&quot;&gt;+ Удалить заказ (Идентификатор заказа)&lt;br&gt;+ Сформировать заказ (идентификатор заказа)&lt;/font&gt;&lt;/div&gt;" style="text;strokeColor=none;fillColor=none;align=left;verticalAlign=top;spacingLeft=4;spacingRight=4;overflow=hidden;rotatable=0;points=[[0,0.5],[1,0.5]];portConstraint=eastwest;whiteSpace=wrap;html=1;" parent="_zAuOo6nP1jeq1UeCMe_-7" vertex="1">
          <mxGeometry y="66" width="200" height="106" as="geometry" />
        </mxCell>
        <mxCell id="_zAuOo6nP1jeq1UeCMe_-11" value="&lt;font style=&quot;font-size: 14px;&quot;&gt;&amp;lt;&amp;lt;Control&amp;gt;&amp;gt;&lt;/font&gt;&lt;div style=&quot;font-size: 14px;&quot;&gt;&lt;font style=&quot;font-size: 14px;&quot;&gt;Система проверки&lt;/font&gt;&lt;/div&gt;&lt;div style=&quot;font-size: 14px;&quot;&gt;&lt;font style=&quot;font-size: 14px;&quot;&gt;наличия авто&lt;br&gt;&lt;/font&gt;&lt;div&gt;&lt;br&gt;&lt;/div&gt;&lt;/div&gt;" style="swimlane;fontStyle=1;align=center;verticalAlign=top;childLayout=stackLayout;horizontal=1;startSize=61;horizontalStack=0;resizeParent=1;resizeParentMax=0;resizeLast=0;collapsible=1;marginBottom=0;whiteSpace=wrap;html=1;" parent="1" vertex="1">
          <mxGeometry x="4040" y="1069" width="200" height="110" as="geometry" />
        </mxCell>
        <mxCell id="_zAuOo6nP1jeq1UeCMe_-12" value="" style="line;strokeWidth=1;fillColor=none;align=left;verticalAlign=middle;spacingTop=-1;spacingLeft=3;spacingRight=3;rotatable=0;labelPosition=right;points=[];portConstraint=eastwest;strokeColor=inherit;" parent="_zAuOo6nP1jeq1UeCMe_-11" vertex="1">
          <mxGeometry y="61" width="200" height="8" as="geometry" />
        </mxCell>
        <mxCell id="_zAuOo6nP1jeq1UeCMe_-13" value="&lt;font style=&quot;font-size: 14px;&quot;&gt;+ Проверить наличие авто (Марка, Модель): bool&lt;/font&gt;" style="text;strokeColor=none;fillColor=none;align=left;verticalAlign=top;spacingLeft=4;spacingRight=4;overflow=hidden;rotatable=0;points=[[0,0.5],[1,0.5]];portConstraint=eastwest;whiteSpace=wrap;html=1;" parent="_zAuOo6nP1jeq1UeCMe_-11" vertex="1">
          <mxGeometry y="69" width="200" height="41" as="geometry" />
        </mxCell>
        <mxCell id="_zAuOo6nP1jeq1UeCMe_-14" value="&lt;font style=&quot;font-size: 14px;&quot;&gt;&amp;lt;&amp;lt;Entity&amp;gt;&amp;gt;&lt;/font&gt;&lt;div style=&quot;font-size: 14px;&quot;&gt;&lt;font style=&quot;font-size: 14px;&quot;&gt;Автомобиль&lt;/font&gt;&lt;/div&gt;" style="swimlane;fontStyle=1;align=center;verticalAlign=top;childLayout=stackLayout;horizontal=1;startSize=41;horizontalStack=0;resizeParent=1;resizeParentMax=0;resizeLast=0;collapsible=1;marginBottom=0;whiteSpace=wrap;html=1;" parent="1" vertex="1">
          <mxGeometry x="4240" y="1240" width="160" height="178" as="geometry" />
        </mxCell>
        <mxCell id="_zAuOo6nP1jeq1UeCMe_-15" value="&lt;font style=&quot;font-size: 14px;&quot;&gt;+ Марка: string&lt;/font&gt;&lt;div style=&quot;font-size: 14px;&quot;&gt;&lt;font style=&quot;font-size: 14px;&quot;&gt;+ Модель: string&lt;/font&gt;&lt;/div&gt;&lt;div style=&quot;font-size: 14px;&quot;&gt;&lt;font style=&quot;font-size: 14px;&quot;&gt;+ Тип двигателя: string&lt;/font&gt;&lt;/div&gt;&lt;div style=&quot;font-size: 14px;&quot;&gt;&lt;font style=&quot;font-size: 14px;&quot;&gt;+ Привод: string&lt;/font&gt;&lt;/div&gt;&lt;div style=&quot;font-size: 14px;&quot;&gt;&lt;font style=&quot;font-size: 14px;&quot;&gt;+ Объём двигателя: int&lt;/font&gt;&lt;/div&gt;&lt;div style=&quot;font-size: 14px;&quot;&gt;&lt;font style=&quot;font-size: 14px;&quot;&gt;+ Год выпуска: int&lt;/font&gt;&lt;/div&gt;&lt;div style=&quot;font-size: 14px;&quot;&gt;&lt;font style=&quot;font-size: 14px;&quot;&gt;+ Мощность: int&lt;/font&gt;&lt;/div&gt;" style="text;strokeColor=none;fillColor=none;align=left;verticalAlign=top;spacingLeft=4;spacingRight=4;overflow=hidden;rotatable=0;points=[[0,0.5],[1,0.5]];portConstraint=eastwest;whiteSpace=wrap;html=1;" parent="_zAuOo6nP1jeq1UeCMe_-14" vertex="1">
          <mxGeometry y="41" width="160" height="129" as="geometry" />
        </mxCell>
        <mxCell id="_zAuOo6nP1jeq1UeCMe_-16" value="" style="line;strokeWidth=1;fillColor=none;align=left;verticalAlign=middle;spacingTop=-1;spacingLeft=3;spacingRight=3;rotatable=0;labelPosition=right;points=[];portConstraint=eastwest;strokeColor=inherit;" parent="_zAuOo6nP1jeq1UeCMe_-14" vertex="1">
          <mxGeometry y="170" width="160" height="8" as="geometry" />
        </mxCell>
        <mxCell id="_zAuOo6nP1jeq1UeCMe_-18" value="&lt;font style=&quot;font-size: 14px;&quot;&gt;&amp;lt;&amp;lt;Entity&amp;gt;&amp;gt;&lt;/font&gt;&lt;div style=&quot;font-size: 14px;&quot;&gt;&lt;font style=&quot;font-size: 14px;&quot;&gt;Б/У Автомобиль&lt;br&gt;&lt;/font&gt;&lt;div&gt;&lt;br&gt;&lt;/div&gt;&lt;/div&gt;" style="swimlane;fontStyle=1;align=center;verticalAlign=top;childLayout=stackLayout;horizontal=1;startSize=41;horizontalStack=0;resizeParent=1;resizeParentMax=0;resizeLast=0;collapsible=1;marginBottom=0;whiteSpace=wrap;html=1;" parent="1" vertex="1">
          <mxGeometry x="4080" y="1480" width="160" height="75" as="geometry" />
        </mxCell>
        <mxCell id="_zAuOo6nP1jeq1UeCMe_-19" value="&lt;font style=&quot;font-size: 14px;&quot;&gt;+ Пробег: int&lt;/font&gt;" style="text;strokeColor=none;fillColor=none;align=left;verticalAlign=top;spacingLeft=4;spacingRight=4;overflow=hidden;rotatable=0;points=[[0,0.5],[1,0.5]];portConstraint=eastwest;whiteSpace=wrap;html=1;" parent="_zAuOo6nP1jeq1UeCMe_-18" vertex="1">
          <mxGeometry y="41" width="160" height="26" as="geometry" />
        </mxCell>
        <mxCell id="_zAuOo6nP1jeq1UeCMe_-20" value="" style="line;strokeWidth=1;fillColor=none;align=left;verticalAlign=middle;spacingTop=-1;spacingLeft=3;spacingRight=3;rotatable=0;labelPosition=right;points=[];portConstraint=eastwest;strokeColor=inherit;" parent="_zAuOo6nP1jeq1UeCMe_-18" vertex="1">
          <mxGeometry y="67" width="160" height="8" as="geometry" />
        </mxCell>
        <mxCell id="_zAuOo6nP1jeq1UeCMe_-22" value="&lt;font style=&quot;font-size: 14px;&quot;&gt;&amp;lt;&amp;lt;Entity&amp;gt;&amp;gt;&lt;/font&gt;&lt;div style=&quot;font-size: 14px;&quot;&gt;&lt;font style=&quot;font-size: 14px;&quot;&gt;Trade-in Автомобиль&lt;br&gt;&lt;/font&gt;&lt;div&gt;&lt;br&gt;&lt;/div&gt;&lt;/div&gt;" style="swimlane;fontStyle=1;align=center;verticalAlign=top;childLayout=stackLayout;horizontal=1;startSize=41;horizontalStack=0;resizeParent=1;resizeParentMax=0;resizeLast=0;collapsible=1;marginBottom=0;whiteSpace=wrap;html=1;" parent="1" vertex="1">
          <mxGeometry x="4400" y="1480" width="160" height="75" as="geometry" />
        </mxCell>
        <mxCell id="_zAuOo6nP1jeq1UeCMe_-23" value="&lt;font style=&quot;font-size: 14px;&quot;&gt;+ Пробег: int&lt;/font&gt;" style="text;strokeColor=none;fillColor=none;align=left;verticalAlign=top;spacingLeft=4;spacingRight=4;overflow=hidden;rotatable=0;points=[[0,0.5],[1,0.5]];portConstraint=eastwest;whiteSpace=wrap;html=1;" parent="_zAuOo6nP1jeq1UeCMe_-22" vertex="1">
          <mxGeometry y="41" width="160" height="26" as="geometry" />
        </mxCell>
        <mxCell id="_zAuOo6nP1jeq1UeCMe_-24" value="" style="line;strokeWidth=1;fillColor=none;align=left;verticalAlign=middle;spacingTop=-1;spacingLeft=3;spacingRight=3;rotatable=0;labelPosition=right;points=[];portConstraint=eastwest;strokeColor=inherit;" parent="_zAuOo6nP1jeq1UeCMe_-22" vertex="1">
          <mxGeometry y="67" width="160" height="8" as="geometry" />
        </mxCell>
        <mxCell id="_zAuOo6nP1jeq1UeCMe_-27" value="" style="endArrow=open;endFill=1;endSize=12;html=1;rounded=0;" parent="1" source="_zAuOo6nP1jeq1UeCMe_-1" target="_zAuOo6nP1jeq1UeCMe_-7" edge="1">
          <mxGeometry width="160" relative="1" as="geometry">
            <mxPoint x="3839.4805194805194" y="1038" as="sourcePoint" />
            <mxPoint x="3813" y="970" as="targetPoint" />
          </mxGeometry>
        </mxCell>
        <mxCell id="_zAuOo6nP1jeq1UeCMe_-28" value="" style="endArrow=open;endFill=1;endSize=12;html=1;rounded=0;" parent="1" source="_zAuOo6nP1jeq1UeCMe_-1" target="_zAuOo6nP1jeq1UeCMe_-11" edge="1">
          <mxGeometry width="160" relative="1" as="geometry">
            <mxPoint x="3936.727272727273" y="1038" as="sourcePoint" />
            <mxPoint x="3729" y="1089" as="targetPoint" />
          </mxGeometry>
        </mxCell>
        <mxCell id="_zAuOo6nP1jeq1UeCMe_-29" value="" style="endArrow=open;dashed=1;endFill=0;endSize=12;html=1;rounded=0;" parent="1" source="_zAuOo6nP1jeq1UeCMe_-11" target="_zAuOo6nP1jeq1UeCMe_-14" edge="1">
          <mxGeometry width="160" relative="1" as="geometry">
            <mxPoint x="4230" y="1060" as="sourcePoint" />
            <mxPoint x="4310" y="1180" as="targetPoint" />
          </mxGeometry>
        </mxCell>
        <mxCell id="_zAuOo6nP1jeq1UeCMe_-30" value="" style="endArrow=block;endSize=16;endFill=0;html=1;rounded=0;" parent="1" source="_zAuOo6nP1jeq1UeCMe_-18" target="_zAuOo6nP1jeq1UeCMe_-14" edge="1">
          <mxGeometry width="160" relative="1" as="geometry">
            <mxPoint x="3870" y="1320" as="sourcePoint" />
            <mxPoint x="4030" y="1320" as="targetPoint" />
          </mxGeometry>
        </mxCell>
        <mxCell id="_zAuOo6nP1jeq1UeCMe_-31" value="" style="endArrow=block;endSize=16;endFill=0;html=1;rounded=0;" parent="1" source="_zAuOo6nP1jeq1UeCMe_-22" target="_zAuOo6nP1jeq1UeCMe_-14" edge="1">
          <mxGeometry width="160" relative="1" as="geometry">
            <mxPoint x="4221" y="1410" as="sourcePoint" />
            <mxPoint x="4280" y="1351" as="targetPoint" />
          </mxGeometry>
        </mxCell>
        <mxCell id="_zAuOo6nP1jeq1UeCMe_-32" value="&lt;font style=&quot;font-size: 14px;&quot;&gt;Заказ&lt;/font&gt;" style="swimlane;fontStyle=1;align=center;verticalAlign=top;childLayout=stackLayout;horizontal=1;startSize=26;horizontalStack=0;resizeParent=1;resizeParentMax=0;resizeLast=0;collapsible=1;marginBottom=0;whiteSpace=wrap;html=1;" parent="1" vertex="1">
          <mxGeometry x="3520" y="1360" width="200" height="118" as="geometry" />
        </mxCell>
        <mxCell id="_zAuOo6nP1jeq1UeCMe_-33" value="&lt;font style=&quot;font-size: 14px;&quot;&gt;+ Дата заказа: datetime&lt;/font&gt;&lt;div style=&quot;font-size: 14px;&quot;&gt;&lt;font style=&quot;font-size: 14px;&quot;&gt;+ Данные заказчика: string&lt;/font&gt;&lt;/div&gt;&lt;div style=&quot;font-size: 14px;&quot;&gt;&lt;font style=&quot;font-size: 14px;&quot;&gt;+ Идентификатор заказа: iint&lt;/font&gt;&lt;/div&gt;&lt;div style=&quot;font-size: 14px;&quot;&gt;&lt;font style=&quot;font-size: 14px;&quot;&gt;+ Статус заказа: string&lt;/font&gt;&lt;/div&gt;" style="text;strokeColor=none;fillColor=none;align=left;verticalAlign=top;spacingLeft=4;spacingRight=4;overflow=hidden;rotatable=0;points=[[0,0.5],[1,0.5]];portConstraint=eastwest;whiteSpace=wrap;html=1;" parent="_zAuOo6nP1jeq1UeCMe_-32" vertex="1">
          <mxGeometry y="26" width="200" height="84" as="geometry" />
        </mxCell>
        <mxCell id="_zAuOo6nP1jeq1UeCMe_-34" value="" style="line;strokeWidth=1;fillColor=none;align=left;verticalAlign=middle;spacingTop=-1;spacingLeft=3;spacingRight=3;rotatable=0;labelPosition=right;points=[];portConstraint=eastwest;strokeColor=inherit;" parent="_zAuOo6nP1jeq1UeCMe_-32" vertex="1">
          <mxGeometry y="110" width="200" height="8" as="geometry" />
        </mxCell>
        <mxCell id="_zAuOo6nP1jeq1UeCMe_-36" value="" style="endArrow=open;dashed=1;endFill=0;endSize=12;html=1;rounded=0;" parent="1" source="_zAuOo6nP1jeq1UeCMe_-7" target="_zAuOo6nP1jeq1UeCMe_-32" edge="1">
          <mxGeometry width="160" relative="1" as="geometry">
            <mxPoint x="4188" y="1179" as="sourcePoint" />
            <mxPoint x="4271" y="1250" as="targetPoint" />
          </mxGeometry>
        </mxCell>
        <mxCell id="_zAuOo6nP1jeq1UeCMe_-39" value="&lt;font style=&quot;font-size: 14px;&quot;&gt;1&lt;/font&gt;" style="text;html=1;align=center;verticalAlign=middle;resizable=0;points=[];autosize=1;strokeColor=none;fillColor=none;" parent="1" vertex="1">
          <mxGeometry x="3960" y="982.5" width="30" height="30" as="geometry" />
        </mxCell>
        <mxCell id="_zAuOo6nP1jeq1UeCMe_-40" value="&lt;font style=&quot;font-size: 14px;&quot;&gt;1&lt;/font&gt;" style="text;html=1;align=center;verticalAlign=middle;resizable=0;points=[];autosize=1;strokeColor=none;fillColor=none;" parent="1" vertex="1">
          <mxGeometry x="4020" y="1020" width="30" height="30" as="geometry" />
        </mxCell>
        <mxCell id="_zAuOo6nP1jeq1UeCMe_-41" value="&lt;font style=&quot;font-size: 14px;&quot;&gt;1&lt;/font&gt;" style="text;html=1;align=center;verticalAlign=middle;resizable=0;points=[];autosize=1;strokeColor=none;fillColor=none;" parent="1" vertex="1">
          <mxGeometry x="3770" y="1000.5" width="30" height="30" as="geometry" />
        </mxCell>
        <mxCell id="_zAuOo6nP1jeq1UeCMe_-42" value="&lt;font style=&quot;font-size: 14px;&quot;&gt;1&lt;/font&gt;" style="text;html=1;align=center;verticalAlign=middle;resizable=0;points=[];autosize=1;strokeColor=none;fillColor=none;" parent="1" vertex="1">
          <mxGeometry x="3720" y="1039" width="30" height="30" as="geometry" />
        </mxCell>
        <mxCell id="_zAuOo6nP1jeq1UeCMe_-43" value="&lt;font style=&quot;font-size: 14px;&quot;&gt;1&lt;/font&gt;" style="text;html=1;align=center;verticalAlign=middle;resizable=0;points=[];autosize=1;strokeColor=none;fillColor=none;" parent="1" vertex="1">
          <mxGeometry x="3590" y="1254" width="30" height="30" as="geometry" />
        </mxCell>
        <mxCell id="_zAuOo6nP1jeq1UeCMe_-44" value="&lt;font style=&quot;font-size: 14px;&quot;&gt;*&lt;/font&gt;" style="text;html=1;align=center;verticalAlign=middle;resizable=0;points=[];autosize=1;strokeColor=none;fillColor=none;" parent="1" vertex="1">
          <mxGeometry x="3590" y="1320" width="30" height="30" as="geometry" />
        </mxCell>
        <mxCell id="_zAuOo6nP1jeq1UeCMe_-45" value="&lt;font style=&quot;font-size: 14px;&quot;&gt;1&lt;/font&gt;" style="text;html=1;align=center;verticalAlign=middle;resizable=0;points=[];autosize=1;strokeColor=none;fillColor=none;" parent="1" vertex="1">
          <mxGeometry x="4200" y="1180" width="30" height="30" as="geometry" />
        </mxCell>
        <mxCell id="_zAuOo6nP1jeq1UeCMe_-46" value="&lt;font style=&quot;font-size: 14px;&quot;&gt;*&lt;/font&gt;" style="text;html=1;align=center;verticalAlign=middle;resizable=0;points=[];autosize=1;strokeColor=none;fillColor=none;" parent="1" vertex="1">
          <mxGeometry x="4235" y="1210" width="30" height="30" as="geometry" />
        </mxCell>
        <mxCell id="_zAuOo6nP1jeq1UeCMe_-47" value="&lt;font style=&quot;font-size: 14px;&quot;&gt;1&lt;/font&gt;" style="text;html=1;align=center;verticalAlign=middle;resizable=0;points=[];autosize=1;strokeColor=none;fillColor=none;" parent="1" vertex="1">
          <mxGeometry x="4165" y="1448" width="30" height="30" as="geometry" />
        </mxCell>
        <mxCell id="_zAuOo6nP1jeq1UeCMe_-48" value="&lt;font style=&quot;font-size: 14px;&quot;&gt;1&lt;/font&gt;" style="text;html=1;align=center;verticalAlign=middle;resizable=0;points=[];autosize=1;strokeColor=none;fillColor=none;" parent="1" vertex="1">
          <mxGeometry x="4205" y="1398" width="30" height="30" as="geometry" />
        </mxCell>
        <mxCell id="_zAuOo6nP1jeq1UeCMe_-49" value="&lt;font style=&quot;font-size: 14px;&quot;&gt;1&lt;/font&gt;" style="text;html=1;align=center;verticalAlign=middle;resizable=0;points=[];autosize=1;strokeColor=none;fillColor=none;" parent="1" vertex="1">
          <mxGeometry x="4400" y="1398" width="30" height="30" as="geometry" />
        </mxCell>
        <mxCell id="_zAuOo6nP1jeq1UeCMe_-50" value="&lt;font style=&quot;font-size: 14px;&quot;&gt;1&lt;/font&gt;" style="text;html=1;align=center;verticalAlign=middle;resizable=0;points=[];autosize=1;strokeColor=none;fillColor=none;" parent="1" vertex="1">
          <mxGeometry x="4435" y="1448" width="30" height="30" as="geometry" />
        </mxCell>
      </root>
    </mxGraphModel>
  </diagram>
</mxfile>
